Patient4_TMGait_0pt3_01_right_21_EMG.mot
version=1
nRows=26
nColumns=33
inDegrees=no
endheader
time	1LAddLong	2LGlutMax	3LGlutMed	4LIliopsoas	5LSemiMemb	6LBicFemLong	7LRecFem	8LVastMed	9LVastLat	10LGasMed	11LTibAnt	12lTibPost	13LPeroneusLong	14LSol	15LExtDigLong	16LFlexDigLong	17RAddLong	18RGlutMax	19RGlutMed	20RIliopsoas	21RSemiMemb	22RBicFemLong	23RRecFem	24RVastMed	25RVastLat	26RGasMed	27RTibAnt	28RTibPost	29RPeroneusLong	30RSol	31RExtDigLong	32RFlexDigLong
39.052	0.009155	-0.050507	0.079346	0.019684	0.03891	0.03067	0.005646	0.005341	0.010223	-0.15396	0.005188	0.014191	0.017242	-0.059509	-0.012817	0.070038	0.11032	0.71838	-0.3952	0.054321	-0.036163	-0.057678	0.017242	-0.26535	-0.27908	-0.004578	-0.032196	-0.012054	-0.077972	-0.042725	-0.003204	-0.00061
39.053	0.001221	-0.035858	0.084686	0.025635	0.039825	0.10101	0.015564	0.005493	0.012512	-0.1384	0.002747	-0.018463	-0.00946	-0.22949	0.016937	-0.063477	0.11078	0.69199	-0.26443	0.026398	-0.019836	0.12543	-0.002594	-0.32044	0.28168	0.025787	-0.041962	-0.021667	0.061951	-0.010834	-0.001373	-0.001373
39.054	0.001678	-0.041962	0.082245	0.008698	0.014343	0.081024	0.023956	0.005646	0.014191	-0.12512	-0.010986	0.000458	0.001068	-0.17258	0.04425	-0.04715	0.091858	0.67871	0.037384	-0.006256	0.30868	0.11978	-0.000763	-0.086365	0.40817	0.036926	0.037689	-0.031281	-0.37567	0.045776	-0.002899	-0.014954
39.055	-0.000153	-0.07843	0.094147	0.018616	-0.006561	-0.039673	0.027771	0.006256	-0.000763	-0.12833	0.007629	-0.00412	-0.025635	-0.01709	0.034943	-0.002136	-0.010223	0.52445	0.021057	0.071106	0.083771	0.32501	-0.034332	0.16235	0.24353	-0.009155	0.11154	0.050964	-0.7077	0.011444	-0.004425	-0.011139
39.056	0.018158	-0.062103	0.12375	0.006104	-0.035553	-0.13611	0.019836	0.003815	0.003357	-0.11307	0.002136	-0.007935	-0.025177	0.15793	0.025787	-0.23987	-0.10269	0.38177	0.11368	0.08194	0.06073	0.36255	-0.052185	0.18799	-0.063019	-0.007172	0.13763	0.000763	-0.46143	-0.04715	-0.004883	-0.011597
39.057	0.011292	-0.087433	0.10269	0.008545	0.009613	-0.0737	0.006256	-0.004425	0.013733	-0.097046	0.005188	-0.003357	-0.012512	0.15472	0.018005	0.035095	-0.1152	0.42007	-0.17654	0.056763	0.12695	0.33447	-0.1207	0.27344	-0.28992	0.001526	0.032959	-0.005341	0.2243	-0.027008	-0.000153	-0.011749
39.058	0.019073	-0.078278	0.093689	-0.001526	0.014801	0.030518	-0.019073	-0.00473	0.018463	-0.072479	0.009155	-0.003204	-0.018921	0.21057	0.007172	0.024567	-0.1001	0.62424	-0.089874	0.002594	0.13123	0.16541	-0.076447	0.29221	-0.4274	-0.003662	0.030518	0.011139	0.10422	0.061646	-0.006104	-0.011292
39.059	0.016327	-0.034332	0.091553	-0.00061	0.011902	0.27054	-0.028076	-0.010986	0.014954	-0.053406	0.005798	0.007782	-0.009003	0.068665	0.000763	-0.00946	-0.096741	0.57816	0.48294	-0.030518	0.039215	-0.000305	0.10635	0.36392	-0.56335	-0.010986	-0.088806	-0.002136	0.19409	0.050812	-0.00351	-0.003967
39.06	0.017548	-0.085754	0.11124	0.00061	-0.002289	0.19012	-0.035553	-0.007019	0.005798	-0.016479	-0.000305	0.001831	-0.019836	0.053253	-0.005341	-0.012817	-0.040588	0.62134	0.87494	-0.05661	0.018311	-0.16846	0.30319	0.22293	-0.36606	-0.026398	-0.16144	-0.003662	0.39139	0.003662	-0.006104	-0.000305
39.061	0.017395	-0.059814	0.10529	0.00946	-0.006409	0.023651	-0.032196	-0.00473	0.005188	0.010223	0.005798	0.008545	-0.029297	0.085144	-0.016479	-0.007935	-0.009308	0.58197	0.2066	-0.035095	0.016174	-0.27069	0.25925	0.14572	-0.1535	-0.006409	-0.10117	-0.005798	0.51254	-0.058899	0.001221	-0.00351
39.062	0.019379	-0.074158	0.079346	0.006256	-0.003052	-0.14969	-0.039978	0	0.00885	-0.050507	0.001068	0.007935	-0.019836	0.085449	-0.00061	-0.013123	0.019684	0.72403	-0.18829	-0.023193	0.057983	-0.26184	0.15549	-0.024719	0.036163	0.007172	-0.035248	-0.001831	0.38986	-0.078888	0.012512	-0.01236
39.063	0.019226	-0.07782	0.082092	-0.00061	0.001831	-0.18295	-0.043945	-0.003815	0.010529	-0.14587	-0.001221	0.011139	-0.011749	0.081635	-0.015106	-0.014648	0.01709	0.93613	-0.242	-0.016174	0.10498	-0.24475	0.13504	-0.16098	0.32745	-0.014343	0.033875	-0.001831	-0.26993	-0.10208	0.001984	0.002441
39.064	0.016785	-0.1564	0.08255	0.007019	0.001831	-0.081024	-0.02594	-0.002441	0.001984	-0.12146	0.005341	0.009918	-0.005951	0.058746	-0.002594	-0.018921	0.000153	1.0301	0.05661	-0.008392	0.094299	-0.040741	0.13886	-0.18021	0.26382	-0.034332	0.1564	-0.006714	-0.040283	-0.090332	-0.002747	-0.009766
39.065	0.018005	-0.15686	0.079651	-0.001373	0.009155	-0.01358	-0.035095	0.00061	0.017242	-0.045776	-0.00351	0.011139	0.000153	0.040588	0.032043	-0.014954	-0.034027	1.0689	0.32486	-0.022583	-0.24307	0.066223	-0.10712	-0.17822	0.14938	-0.051117	0.11078	-0.011444	0.44266	-0.092468	-0.002289	-0.010071
39.066	0.018311	-0.15701	0.082855	0.016632	-0.002289	0.052032	-0.035095	-0.003662	0.003204	0.079651	-0.002899	0.005188	0.000458	0.028992	0.019073	-0.018311	-0.014038	1.0315	0.49789	0.047455	-0.24841	-0.057526	-0.20554	-0.19806	0.067444	-0.038605	-0.078278	-0.019073	0.64362	-0.13275	-0.00061	-0.004425
39.067	0.016174	-0.10864	0.081177	0.002441	0.001984	0.062408	-0.028534	-0.000153	0.001984	0.20935	-0.003052	0.016632	-0.023956	0.072327	0.003204	-0.020905	-0.0177	0.91934	-0.17029	0.066681	0.13306	-0.25253	0.025177	-0.059509	-0.071716	-0.027924	-0.003815	-0.009003	-1.1119	0.012665	-0.005646	-0.006256
39.068	0.006561	-0.13107	0.083008	0.014496	-0.012054	0.070801	-0.034332	0.001831	0.002289	0.36102	0.006561	0.012817	-0.047607	0.13138	-0.021362	-0.002136	-0.003967	0.71732	-0.004272	0.019073	-0.034027	-0.0737	0.21225	0.020752	-0.20996	0.046997	0.02533	-0.006104	-0.44678	0.10941	-0.002441	-0.007629
39.069	0.016632	-0.20096	0.092468	0.007629	-0.015869	0.061798	-0.051727	-0.002289	0.013123	0.17853	0.006561	0.016937	-0.047913	0.12802	-0.040588	-0.6778	0.013885	0.54428	0.21332	0.017395	-0.059509	0.076294	0.37155	0.02655	-0.28122	0.001984	-0.050354	-0.014954	1.3911	0.10361	-0.000153	-0.010223
39.07	0.007172	-0.16785	0.084534	0.010681	-0.018768	0.074921	-0.03479	0.001221	0.023041	-0.098877	-0.002747	0.010376	0.024719	-0.003052	-0.045471	0.14908	0.00351	0.57297	-0.043793	-0.031738	-0.045166	0.14343	0.2655	-0.036469	-0.16113	-0.013275	0.054474	-0.033569	-0.40665	0.2504	0.000916	-0.014038
39.071	0.001984	-0.14389	0.081482	0.007324	-0.018311	0.077057	-0.057373	-0.00061	0.014496	-0.19104	0.001984	0.001373	0.06073	-0.007477	-0.037537	0.20493	-0.010223	0.46448	-0.69138	-0.041962	0.085754	0.21683	0.019989	-0.15945	-0.17853	0.027161	0.023041	-0.051727	-0.12665	0.24612	-0.001831	-0.013275
39.072	0.007324	-0.12253	0.08194	0.006409	0.002594	0.031281	-0.029297	0.00061	0.027161	-0.11414	0.002289	0.011139	0.032959	0.1416	-0.013885	0.15869	-0.017395	0.54504	-0.76538	-0.072021	-0.006866	0.1236	-0.032806	-0.25589	-0.15915	0.025482	-0.032959	0.028381	0.80765	0.2359	-0.009766	-0.009766
39.073	0.009308	-0.092316	0.074005	0.009613	0.008698	0.005035	-0.0383	0.002747	0.027924	-0.039978	0.007782	0.004425	0.017548	0.10346	-0.027161	0.057068	0.025482	0.60684	-0.50766	-0.045776	0.15793	-0.17883	-0.20798	-0.15091	0.057831	0.023651	-0.035858	0.054626	0.14572	0.09613	-0.005951	-0.00473
39.074	0.007782	-0.1265	0.09201	-0.002441	-0.001984	-0.03479	-0.04776	-0.000916	0.028229	0.028992	-0.001678	0.00885	0.010529	-0.15854	-0.002747	0.029602	0.035248	0.41153	-0.30685	-0.041656	-0.050507	-0.30762	-0.27603	-0.024414	0.1474	0.018921	-0.041351	0.005341	0.10819	-0.077057	0.000763	0.002136
39.075	0.00946	-0.15839	0.086365	0.019684	-0.021973	-0.054932	-0.032043	-0.002441	0.026245	0.021362	0.009003	0.007629	0.011902	-0.049133	0.015106	0.018616	0.040131	0.12528	-0.21225	0.035858	-0.51559	-0.21988	-0.3038	0.013733	0.15137	0.023651	-0.052795	-0.007935	-0.9407	-0.11139	-0.001678	-0.000763
39.076	0.001984	-0.17105	0.068817	0.010834	-0.024567	-0.05127	-0.037079	-0.007172	0.014343	-0.001831	0.006409	0.010986	0.022736	-0.13611	0.012512	-0.027008	0.06546	-0.02182	-0.27313	0.029144	-0.42954	-0.33157	-0.30548	0.04715	0.23727	0.010986	-0.037537	-0.015106	-0.59357	-0.037537	-0.002289	-0.000153
39.077	0.00885	-0.15533	0.078125	0.003815	-0.025024	-0.096436	-0.021973	-0.003052	0.007172	-0.023804	0.006866	0.015564	-0.000916	-0.18799	0.010376	-0.029449	0.10452	-0.12177	-0.045624	0.02594	-0.49957	-0.38574	-0.14984	-0.005646	0.18616	-0.002136	-0.14099	-0.002594	0.76553	-0.16647	0.000153	-0.005493
